<?xml version="1.0" encoding="UTF-8" standalone="no"?>
<!-- Created with Inkscape (http://www.inkscape.org/) -->

<svg
   width="200mm"
   height="200mm"
   viewBox="0 0 200 200"
   version="1.1"
   id="svg1"
   inkscape:export-filename="logo.svg"
   inkscape:export-xdpi="96"
   inkscape:export-ydpi="96"
   xmlns:inkscape="http://www.inkscape.org/namespaces/inkscape"
   xmlns:sodipodi="http://sodipodi.sourceforge.net/DTD/sodipodi-0.dtd"
   xmlns="http://www.w3.org/2000/svg"
   xmlns:svg="http://www.w3.org/2000/svg">
  <sodipodi:namedview
     id="namedview1"
     pagecolor="#505050"
     bordercolor="#eeeeee"
     borderopacity="1"
     inkscape:showpageshadow="0"
     inkscape:pageopacity="0"
     inkscape:pagecheckerboard="0"
     inkscape:deskcolor="#505050"
     inkscape:document-units="px" />
  <defs
     id="defs1" />
  <g
     inkscape:label="Camada 1"
     inkscape:groupmode="layer"
     id="layer1">
    <path
       style="opacity:0.937758;fill:#a078e6;fill-opacity:0.470203;stroke:none;stroke-width:1.02524;stroke-linecap:round;stroke-dasharray:none;stroke-opacity:1"
       d="m 86.121958,34.395489 c 3.108962,26.501053 -4.051173,55.413216 3.410244,81.528191 5.855964,20.49588 24.811688,18.65649 43.946328,19.56087 13.94445,0.65908 38.12914,9.77942 51.99208,2.48649 16.65586,-8.76218 7.28422,-36.57937 9.05813,-51.542146 4.02846,-33.979575 6.30956,-50.430058 -31.46181,-55.13629 -24.21142,-3.016693 -48.25771,-2.973927 -72.630325,-2.973927"
       id="path26-8" />
    <path
       style="opacity:1;fill:#a078e6;fill-opacity:1;stroke:none;stroke-width:1.02524;stroke-linecap:round;stroke-dasharray:none;stroke-opacity:1"
       d="m 72.457135,15.274417 c 3.108954,26.501054 -4.051183,55.41323 3.410243,81.528214 5.85596,20.495869 24.811682,18.656479 43.946322,19.560869 13.94445,0.65907 38.12914,9.77942 51.99209,2.48649 16.65586,-8.76219 7.28422,-36.579376 9.05813,-51.542154 C 184.89238,33.328248 187.17347,16.877764 149.4021,12.171533 125.19068,9.1548479 101.14439,9.1976121 76.771783,9.1976121"
       id="path26" />
    <path
       style="fill:#0f0f0e;fill-opacity:0.742008;stroke:none;stroke-width:1.25141;stroke-linecap:round;stroke-dasharray:none;stroke-opacity:1"
       d="m 118.19387,37.170788 c 0,0 -6.44479,-2.019847 -8.82239,1.521121 -2.3776,3.54097 1.61862,21.396379 -2.29664,22.328952 -3.91526,0.932563 -11.609712,1.195888 -9.673177,3.45917 1.936547,2.263295 9.177577,2.570911 9.320527,4.919507 0.14298,2.348607 -3.66237,16.855721 0.0886,18.934455 3.75095,2.078733 12.44231,2.597402 12.70981,0.393328 0.26751,-2.204087 -8.19332,-0.481973 -8.49487,-4.908243 -0.30154,-4.426269 4.54417,-16.200139 2.3149,-17.368488 -2.22929,-1.168349 1.2265,-3.141375 1.2265,-4.989913 0,-1.848539 -2.26428,-14.716424 -0.17261,-18.34472 2.09166,-3.628296 3.79938,-5.945169 3.79938,-5.945169 z"
       id="path38-0" />
    <path
       style="fill:#0f0f0e;fill-opacity:0.742008;stroke:none;stroke-width:1.25141;stroke-linecap:round;stroke-dasharray:none;stroke-opacity:1"
       d="m 130.40203,90.263955 c 0,0 6.44479,2.019861 8.82239,-1.521108 2.3776,-3.540969 -1.61862,-21.396378 2.29664,-22.328953 3.91526,-0.932561 11.60972,-1.195886 9.67318,-3.459169 -1.93654,-2.263295 -9.17758,-2.570911 -9.32053,-4.919506 -0.14298,-2.348608 3.66237,-16.855722 -0.0886,-18.934455 -3.75095,-2.078733 -12.44231,-2.597403 -12.70982,-0.393329 -0.2675,2.204086 8.19333,0.481974 8.49488,4.908243 0.30154,4.426268 -4.54417,16.200139 -2.3149,17.368488 2.22928,1.16835 -1.2265,3.141376 -1.2265,4.989913 0,1.848538 2.26428,14.716411 0.17261,18.344721 -2.09166,3.628296 -3.79938,5.945155 -3.79938,5.945155 z"
       id="path38-7" />
    <path
       style="opacity:1;fill:#ea987a;fill-opacity:0.999908;stroke:none;stroke-width:1.02524;stroke-linecap:round;stroke-dasharray:none;stroke-opacity:1"
       d="m 20.070625,76.177127 c -39.645491,73.484863 -12.6869796,96.511193 59.951687,96.511193 13.88921,0 37.393418,2.25982 48.895518,-6.98752 9.04933,-7.27539 11.35779,-26.61558 13.96258,-37.03475 C 157.16311,71.535284 87.989723,70.172375 43.988734,70.172375"
       id="path27" />
    <path
       style="opacity:1;fill:#ea987a;fill-opacity:0.46989;stroke:none;stroke-width:1.02524;stroke-linecap:round;stroke-dasharray:none;stroke-opacity:1"
       d="M 37.141869,92.526398 C -2.5036216,166.01126 24.454889,189.0376 97.093556,189.0376 c 13.889204,0 37.393424,2.25981 48.895524,-6.98754 9.04933,-7.27538 11.35779,-26.61556 13.96258,-37.03474 14.28269,-57.130765 -54.8907,-58.493674 -98.89168,-58.493674"
       id="path27-7" />
    <path
       style="opacity:1;fill:#0f0f0e;fill-opacity:0.742008;stroke:none;stroke-width:1.02524;stroke-linecap:round;stroke-dasharray:none;stroke-opacity:1"
       d="m 56.100509,102.19406 c 0,0 -24.505997,12.86938 -22.585248,18.53291 1.920746,5.66354 12.922147,25.23766 17.311286,22.98691 4.389138,-2.25074 -13.092757,-21.25025 -10.947664,-23.41182 2.145093,-2.16158 21.378567,-10.16782 19.738668,-13.62563 -1.639904,-3.4578 -3.517042,-4.48237 -3.517042,-4.48237 z"
       id="path36" />
    <path
       style="fill:#0f0f0e;fill-opacity:0.742008;stroke:none;stroke-width:1.02524;stroke-linecap:round;stroke-dasharray:none;stroke-opacity:1"
       d="m 84.319554,148.97113 c 0,0 24.505996,-12.86938 22.585246,-18.53291 -1.92075,-5.66354 -12.922152,-25.23766 -17.311281,-22.98691 -4.38914,2.25075 13.092761,21.25026 10.947671,23.41183 -2.14511,2.16157 -21.378577,10.16782 -19.738673,13.62562 1.639895,3.4578 3.517037,4.48237 3.517037,4.48237 z"
       id="path36-1" />
    <path
       style="opacity:1;fill:#0f0f0e;fill-opacity:0.742008;stroke:none;stroke-width:1.05816;stroke-linecap:round;stroke-dasharray:none;stroke-opacity:1"
       d="m 74.763754,104.15512 c 0,0 -18.485368,45.16318 -16.092497,47.71605 2.392873,2.55288 6.48952,1.14328 7.936721,-2.63653 1.447195,-3.77977 15.153177,-48.91318 13.035276,-49.09122 -2.117899,-0.178038 -4.8795,4.0117 -4.8795,4.0117 z"
       id="path37" />
  </g>
</svg>
